<?xml version="1.0" standalone="no"?>
<!DOCTYPE svg PUBLIC "-//W3C//DTD SVG 20010904//EN"
 "http://www.w3.org/TR/2001/REC-SVG-20010904/DTD/svg10.dtd">
<svg version="1.0" xmlns="http://www.w3.org/2000/svg"
 width="260.000000pt" height="260.000000pt" viewBox="0 0 260.000000 260.000000"
 preserveAspectRatio="xMidYMid meet">
<metadata>
Created by potrace 1.11, written by Peter Selinger 2001-2013
</metadata>
<g transform="translate(0.000000,260.000000) scale(0.100000,-0.100000)"
fill="#000000" stroke="none">
<path d="M1475 2517 c-16 -5 -39 -13 -50 -18 -19 -8 -152 -51 -167 -55 -5 -1
-10 -3 -13 -4 -3 -1 -8 -3 -12 -5 -5 -1 -15 -4 -23 -8 -8 -3 -39 -13 -68 -22
-43 -14 -56 -24 -72 -53 -10 -21 -19 -34 -20 -30 0 14 -66 -16 -116 -53 -29
-21 -54 -35 -57 -32 -17 17 -77 8 -113 -17 -22 -14 -97 -66 -169 -115 -71 -48
-131 -89 -132 -90 -2 -1 3 -16 9 -33 20 -52 72 -54 135 -6 44 34 60 30 28 -7
-48 -58 -63 -99 -59 -163 2 -33 7 -63 13 -69 5 -5 7 -15 5 -22 -3 -7 8 -21 24
-30 36 -21 45 -36 83 -132 29 -75 32 -107 12 -159 -3 -8 4 -18 18 -25 13 -6
44 -21 69 -34 25 -13 49 -20 55 -17 5 3 31 7 57 8 64 3 66 -12 20 -108 -26
-54 -47 -84 -72 -100 -19 -13 -36 -34 -38 -46 -2 -13 -14 -27 -26 -32 -15 -5
-31 -26 -42 -55 -17 -41 -22 -45 -44 -40 -13 4 -28 7 -33 8 -19 4 -51 -54 -50
-91 0 -30 -20 -118 -63 -264 -3 -10 -14 -18 -25 -18 -10 0 -19 -5 -19 -10 0
-6 6 -9 12 -8 8 2 13 -13 15 -42 1 -25 5 -64 8 -87 4 -24 6 -46 7 -50 1 -21
40 -107 55 -121 16 -16 14 -17 -18 -23 l-34 -6 31 -2 c17 0 61 -15 97 -31 l67
-30 62 30 c67 33 81 29 71 -22 -9 -46 8 -55 100 -56 90 0 139 15 157 47 6 12
8 21 5 21 -3 0 -1 8 4 18 11 21 -8 48 -53 76 l-29 19 44 21 c45 21 46 25 35
81 -3 17 -8 44 -12 60 -3 17 -12 43 -20 59 -8 16 -14 30 -14 31 0 1 104 2 230
1 127 0 230 -2 230 -6 0 -3 -4 -10 -10 -16 -10 -10 -50 -155 -50 -180 0 -7 18
-20 40 -30 36 -16 55 -44 31 -44 -5 0 -22 -11 -38 -24 -19 -16 -46 -26 -74
-29 l-44 -4 49 -1 49 -2 -6 -39 c-4 -33 -1 -40 22 -54 17 -10 44 -14 79 -12
28 1 52 0 52 -4 0 -4 7 -8 15 -8 8 0 12 4 9 9 -4 5 0 9 7 7 46 -6 69 20 69 75
0 29 -6 48 -19 60 -33 30 -31 51 6 80 25 21 31 31 24 40 -6 7 -8 15 -5 18 3 3
-6 38 -20 78 -14 40 -23 76 -21 80 3 5 16 7 30 5 14 -1 25 2 25 6 0 5 -21 9
-47 9 -59 0 -81 11 -59 29 16 14 18 49 2 69 -13 18 -16 182 -3 207 14 27 20
105 7 105 -5 0 -18 7 -27 15 -10 8 -26 21 -37 28 -20 14 -23 29 -31 150 -5 66
-3 80 13 97 18 20 19 19 66 -65 39 -69 46 -90 41 -115 -5 -22 0 -44 20 -83 14
-30 28 -66 31 -82 3 -15 5 -30 6 -34 1 -3 -6 -30 -15 -60 -17 -55 -11 -91 16
-91 7 0 29 -25 50 -56 36 -51 38 -57 27 -85 -8 -19 -20 -29 -34 -30 -21 0 -21
0 2 -11 12 -6 22 -15 22 -20 0 -4 13 -8 29 -8 33 0 41 -14 41 -69 0 -47 -10
-58 -24 -28 -13 25 -31 27 -63 7 -27 -17 -31 -73 -9 -105 14 -20 16 -26 16
-45 0 -5 19 -22 42 -36 40 -25 42 -26 75 -10 18 9 42 16 53 16 38 0 92 109
114 230 7 41 16 64 24 62 6 -1 12 2 12 8 0 5 -6 10 -12 10 -7 0 -14 10 -15 23
0 12 -20 74 -43 137 -23 63 -44 136 -45 161 -2 35 -31 115 -50 137 -1 2 -19
-7 -39 -19 -34 -20 -36 -20 -43 -2 -3 10 -21 32 -40 48 -18 17 -33 35 -33 41
0 6 -15 19 -33 29 -43 23 -129 172 -127 219 3 56 0 63 -30 76 -16 7 -30 19
-30 26 0 10 -10 14 -30 12 -21 -2 -35 4 -46 20 -8 12 -21 22 -28 22 -8 0 -19
7 -26 14 -10 13 1 21 62 51 76 38 251 144 256 156 2 4 12 18 23 31 11 12 28
32 37 43 20 23 45 101 37 115 -3 5 -1 11 5 15 7 4 7 13 0 26 -6 11 -15 17 -21
14 -5 -4 -9 -1 -9 4 0 6 -9 11 -19 11 -24 0 -136 196 -122 214 5 6 7 22 6 36
-2 14 -4 28 -4 33 -1 4 -8 7 -16 7 -8 0 -15 4 -15 9 0 5 -21 14 -47 20 -27 7
-72 25 -100 42 -29 16 -61 29 -72 29 -47 0 -24 31 28 39 5 0 16 12 25 26 15
23 15 28 1 54 -19 38 -24 40 -60 28z m-398 -1373 c-4 -94 -6 -99 -33 -121 -75
-62 -75 -62 -66 -80 5 -10 7 -24 5 -31 -3 -7 2 -23 10 -35 19 -30 17 -182 -3
-214 -11 -17 -11 -27 -2 -48 16 -34 8 -45 -28 -40 -17 2 -30 -1 -30 -7 0 -5 7
-8 15 -4 17 6 20 -5 6 -20 -9 -9 -16 -30 -46 -139 -13 -44 -13 -51 3 -69 16
-19 16 -19 -3 -12 -44 18 -54 17 -84 -5 -17 -12 -34 -19 -38 -16 -4 4 -8 37
-9 74 -3 66 9 109 26 98 12 -8 40 23 40 46 0 12 -7 19 -20 19 -11 0 -20 5 -20
10 0 6 4 10 9 10 5 0 12 11 15 24 3 13 16 27 28 31 18 6 20 8 7 12 -15 4 -15
8 2 44 11 21 26 39 34 39 30 0 30 66 -1 101 -13 15 -11 79 3 101 6 10 14 49
15 68 0 8 7 22 15 31 19 23 24 56 12 83 -9 19 -4 37 30 103 22 45 46 83 52 85
7 2 23 -6 36 -18 22 -20 23 -27 20 -120z m546 -380 c-3 -42 -11 -88 -19 -102
-18 -35 -18 -47 1 -62 10 -8 12 -16 6 -20 -9 -5 -489 -6 -540 -1 -11 1 -11 4
0 17 20 24 21 52 2 80 -19 30 -28 164 -11 164 6 0 27 -12 47 -27 36 -28 37
-28 215 -31 99 -2 182 1 185 5 15 20 102 64 113 57 4 -2 4 -38 1 -80z"/>
<path d="M830 571 c0 -4 20 -7 44 -7 25 0 43 3 40 5 -7 8 -84 9 -84 2z"/>
<path d="M83 575 c4 -11 427 -16 427 -5 0 8 -50 11 -253 13 -114 1 -176 -2
-174 -8z"/>
<path d="M2204 569 c-3 -5 -4 -9 -2 -10 30 -7 48 -7 48 0 0 12 -39 21 -46 10z"/>
<path d="M2160 566 c0 -2 7 -6 15 -10 8 -3 15 -1 15 4 0 6 -7 10 -15 10 -8 0
-15 -2 -15 -4z"/>
<path d="M2265 562 c9 -9 65 -11 65 -2 0 4 -16 8 -36 8 -19 0 -33 -3 -29 -6z"/>
<path d="M2340 561 c0 -4 34 -7 75 -7 41 0 72 2 70 6 -6 9 -145 9 -145 1z"/>
<path d="M319 343 c-13 -16 -12 -17 4 -4 16 13 21 21 13 21 -2 0 -10 -8 -17
-17z"/>
<path d="M125 240 c4 -6 11 -8 16 -5 14 9 11 15 -7 15 -8 0 -12 -5 -9 -10z"/>
<path d="M230 239 c0 -5 5 -7 10 -4 6 3 10 8 10 11 0 2 -4 4 -10 4 -5 0 -10
-5 -10 -11z"/>
<path d="M80 229 c0 -5 5 -7 10 -4 6 3 10 8 10 11 0 2 -4 4 -10 4 -5 0 -10 -5
-10 -11z"/>
<path d="M1290 232 c0 -4 12 -8 28 -9 23 -1 24 -1 7 7 -26 11 -35 12 -35 2z"/>
</g>
</svg>
